<svg width="3727" height="2600" viewBox="0 0 3727 2600" fill="none" xmlns="http://www.w3.org/2000/svg">
<path d="M835.8 1748.1V1855.6" stroke="#3356B4" stroke-width="13" stroke-linecap="round" stroke-linejoin="round"/>
<path d="M1889.8 2593.1V2486.1" stroke="#3356B4" stroke-width="13" stroke-linecap="round" stroke-linejoin="round"/>
<path d="M1214.6 7.09998H2768.8C2772.8 7.09998 2776.6 8.7 2779.4 11.5L2784.4 16.5C2787.2 19.3 2788.8 23.1 2788.8 27.1V627.1C2788.8 631.1 2787.2 634.9 2784.4 637.7L2779.4 642.7C2776.6 645.5 2772.8 647.1 2768.8 647.1H1495.9C1491.9 647.1 1488.1 648.7 1485.2 651.6L1480.1 656.8C1477.3 659.6 1475.8 663.4 1475.8 667.3V1460.1C1475.8 1464.1 1474.2 1467.9 1471.4 1470.7L1466.4 1475.7C1463.6 1478.5 1459.8 1480.1 1455.8 1480.1H153.1C145.9 1480.1 139.9 1480.7 133.9 1482.7C126.3 1485.3 118.9 1490.3 109.5 1499.7L62.2999 1547.1L23.2 1586.1C17.9 1591.4 13.9999 1596.4 11.2999 1602.5C8.19993 1609.7 6.69995 1618.4 6.69995 1631.2V1672.5V1737.5V2090.5" stroke="#3356B4" stroke-width="13" stroke-linecap="round" stroke-linejoin="round"/>
<path d="M3720.3 2593.1H1709.1C1694 2593.1 1683.6 2590.3 1669.2 2577.1L1570.2 2478.3L1476.2 2384.3L1383.2 2291.3L1289.1 2197.2L1196.1 2104.2L1113.3 2021.4L1053 1961.1L1000 1908.1L947.1 1855.3L893.2 1801.6L840.4 1749C837.6 1746.2 836 1742.4 836 1738.4V1480.7" stroke="#3356B4" stroke-width="13" stroke-linecap="round" stroke-linejoin="round"/>
</svg>
